<?xml version="1.0" encoding="UTF-8"?>
<svg id="_图层_1" data-name="图层 1" xmlns="http://www.w3.org/2000/svg" viewBox="0 0 94 94">
  <defs>
    <style>
      .cls-1 {
        fill: #979797;
        stroke-width: 0px;
      }
    </style>
  </defs>
  <path class="cls-1" d="m93.99,26.04c0-.95-.02-1.89-.04-2.84-.06-2.06-.18-4.14-.54-6.17-.37-2.07-.98-3.99-1.93-5.87-.94-1.85-2.17-3.53-3.63-5s-3.15-2.69-5-3.63c-1.88-.96-3.8-1.56-5.87-1.93-2.04-.37-4.12-.49-6.18-.54-.95-.03-1.89-.04-2.84-.04C66.84,0,65.72,0,64.6,0H29.4C28.28,0,27.16,0,26.04,0c-.95,0-1.89.02-2.84.04-2.06.06-4.14.18-6.18.54-2.07.37-3.99.98-5.87,1.93-1.85.94-3.53,2.17-5,3.63-1.46,1.46-2.69,3.15-3.63,5-.96,1.88-1.56,3.8-1.93,5.87-.37,2.04-.49,4.11-.54,6.17-.03.95-.04,1.89-.04,2.84C0,27.16,0,28.28,0,29.4v35.19c0,1.12,0,2.25,0,3.37,0,.95.02,1.89.04,2.84.06,2.06.18,4.14.54,6.17.37,2.07.98,3.99,1.93,5.87.94,1.85,2.17,3.53,3.63,5,1.46,1.46,3.15,2.69,5,3.63,1.88.96,3.8,1.56,5.87,1.93,2.04.37,4.12.49,6.18.54.95.03,1.89.04,2.84.04,1.12,0,2.25,0,3.37,0h35.19c1.12,0,2.25,0,3.37,0,.95,0,1.89-.02,2.84-.04,2.06-.06,4.14-.18,6.18-.54,2.07-.37,3.99-.98,5.87-1.93,1.85-.94,3.53-2.17,5-3.63,1.46-1.46,2.69-3.15,3.63-5,.96-1.88,1.56-3.8,1.93-5.87.37-2.04.49-4.11.54-6.17.03-.95.04-1.89.04-2.84,0-1.12,0-2.25,0-3.37V29.4c0-1.12,0-2.25,0-3.37Zm-39.79,36.26c-.22,2.63-.65,6.14-1.21,9.72-.4,2.55-.72,3.92-1.01,4.9-.47,1.59-2.25,2.99-5.02,2.99s-4.54-1.39-5.02-2.99c-.29-.98-.61-2.36-1.01-4.9-.56-3.58-.98-7.09-1.21-9.72-.24-2.76-.36-4.49-.14-6.5.11-1.04.47-1.76,1.14-2.47,1.29-1.36,3.55-2.23,6.23-2.23s4.94.87,6.23,2.23c.67.71,1.03,1.44,1.14,2.47.22,2.01.1,3.74-.14,6.5Zm-18.43-6.68c.27.25.41.61.39.98-.06,1.12-.04,2.22.03,3.45.02.33-.35.54-.62.35-5.41-3.69-8.94-9.94-8.85-16.99.14-10.72,8.73-19.55,19.44-19.96,11.53-.45,21.05,8.8,21.05,20.23,0,6.94-3.51,13.07-8.85,16.72-.27.19-.64-.02-.62-.35.07-1.23.1-2.33.03-3.45-.02-.37.12-.73.39-.98,3.18-2.99,5.18-7.23,5.18-11.93,0-9.24-7.7-16.72-17.03-16.36-8.58.33-15.5,7.34-15.73,15.92-.13,4.88,1.89,9.29,5.17,12.37Zm18.24-14.4c0,3.88-3.15,7.03-7.03,7.03s-7.03-3.15-7.03-7.03,3.15-7.03,7.03-7.03c3.88,0,7.03,3.15,7.03,7.03Zm2.97,30.98c-.29.1-.58-.14-.54-.44.16-1.03.3-2.07.44-3.09.05-.36.28-.67.61-.82,9.31-4.07,15.84-13.36,15.84-24.16,0-14.6-11.94-26.47-26.57-26.35-14.31.12-26,11.78-26.14,26.09-.11,10.9,6.45,20.32,15.84,24.42.33.15.56.46.61.82.13,1.02.28,2.06.44,3.1.05.3-.25.54-.54.44-11.88-4.18-20.38-15.57-20.22-28.89.2-16.44,13.68-29.79,30.13-29.83,16.71-.05,30.31,13.52,30.31,30.21,0,13.16-8.46,24.37-20.22,28.51Z"/>
</svg>