<?xml version="1.0" encoding="UTF-8"?>
<svg id="_图层_1" data-name="图层 1" xmlns="http://www.w3.org/2000/svg" viewBox="0 0 396.52 120">
  <defs>
    <style>
      .cls-1 {
        fill: #979797;
      }

      .cls-1, .cls-2 {
        stroke-width: 0px;
      }

      .cls-2 {
        fill: #fff;
      }
    </style>
  </defs>
  <path class="cls-1" d="m23.75,119.98c-.96,0-1.89-.01-2.84-.03-1.75-.05-3.83-.15-5.86-.51-1.91-.35-3.62-.91-5.2-1.72-1.63-.83-3.11-1.9-4.38-3.19-1.3-1.27-2.37-2.74-3.2-4.38-.81-1.58-1.37-3.28-1.7-5.2-.38-2.11-.48-4.25-.52-5.88-.02-.66-.05-2.86-.05-2.86V23.74s.03-2.17.05-2.81c.04-1.64.14-3.78.52-5.87.33-1.92.89-3.62,1.7-5.21.83-1.64,1.9-3.12,3.18-4.39,1.3-1.3,2.77-2.37,4.4-3.21,1.61-.82,3.31-1.38,5.19-1.71,2.11-.38,4.25-.48,5.88-.52l2.83-.04h349l2.86.04c1.61.04,3.75.13,5.83.51,1.89.33,3.6.89,5.24,1.72,1.61.82,3.08,1.9,4.37,3.19,1.28,1.27,2.36,2.75,3.21,4.4.81,1.6,1.36,3.3,1.68,5.17.36,1.98.48,4.01.55,5.92,0,.89,0,1.84,0,2.79.03,1.18.03,2.3.03,3.43v65.65c0,1.14,0,2.25-.03,3.37,0,1.02,0,1.95-.01,2.92-.07,1.85-.18,3.88-.54,5.82-.33,1.92-.88,3.62-1.69,5.24-.85,1.63-1.92,3.1-3.19,4.35-1.3,1.31-2.77,2.38-4.39,3.21-1.63.83-3.29,1.37-5.23,1.73-2.01.36-4.09.46-5.86.51-.92.02-1.88.03-2.81.03h-3.4s-345.62,0-345.62,0Z"/>
  <g>
    <path class="cls-2" d="m99.87,45.22c0-.94,0-1.89,0-2.83,0-.79-.01-1.59-.03-2.38-.05-1.73-.15-3.47-.45-5.19-.31-1.74-.82-3.35-1.62-4.93-.79-1.55-1.82-2.97-3.05-4.2s-2.65-2.26-4.2-3.05c-1.58-.8-3.19-1.31-4.93-1.62-1.71-.31-3.46-.41-5.19-.45-.79-.02-1.59-.03-2.38-.03-.94,0-1.89,0-2.83,0h-29.55c-.94,0-1.89,0-2.83,0-.79,0-1.59.01-2.38.03-1.73.05-3.48.15-5.19.45-1.73.31-3.35.82-4.93,1.62-1.55.79-2.97,1.82-4.2,3.05-1.23,1.23-2.26,2.65-3.05,4.2-.8,1.58-1.31,3.19-1.62,4.93-.31,1.71-.41,3.45-.45,5.19-.02.79-.03,1.59-.03,2.38,0,.94,0,1.89,0,2.83v29.55c0,.94,0,1.89,0,2.83,0,.79.01,1.59.03,2.38.05,1.73.15,3.47.45,5.19.31,1.74.82,3.35,1.62,4.93.79,1.55,1.82,2.97,3.05,4.2s2.65,2.26,4.2,3.05c1.58.8,3.19,1.31,4.93,1.62,1.71.31,3.46.41,5.19.45.79.02,1.59.03,2.38.03.94,0,1.89,0,2.83,0h29.55c.94,0,1.89,0,2.83,0,.79,0,1.59-.01,2.38-.03,1.73-.05,3.48-.15,5.19-.45,1.73-.31,3.35-.82,4.93-1.62,1.55-.79,2.97-1.82,4.2-3.05s2.26-2.65,3.05-4.2c.8-1.58,1.31-3.19,1.62-4.93.31-1.71.41-3.45.45-5.19.02-.79.03-1.59.03-2.38,0-.94,0-1.89,0-2.83v-29.55h0Z"/>
    <path class="cls-1" d="m60.38,49.23c3.26,0,5.91,2.64,5.91,5.9s-2.64,5.9-5.91,5.9-5.91-2.64-5.91-5.9,2.64-5.9,5.91-5.9Zm17,7.98c0,5.83-2.95,10.98-7.43,14.04-.23.16-.54-.02-.52-.3.06-1.04.08-1.95.03-2.9-.02-.31.1-.61.33-.82,2.68-2.51,4.35-6.07,4.35-10.02,0-7.76-6.47-14.04-14.3-13.74-7.21.28-13.02,6.16-13.21,13.37-.11,4.09,1.58,7.8,4.34,10.39.23.21.35.51.33.82-.05.94-.03,1.86.03,2.9.02.28-.29.45-.52.3-4.54-3.1-7.51-8.34-7.43-14.26.12-9,7.33-16.42,16.33-16.76,9.68-.38,17.68,7.39,17.68,16.98Zm-17.07-25.37c14.03-.04,25.45,11.36,25.45,25.37,0,11.05-7.1,20.47-16.98,23.94-.24.08-.49-.12-.45-.37.13-.87.25-1.74.37-2.6.04-.3.23-.56.51-.69,7.82-3.42,13.3-11.22,13.3-20.29,0-12.26-10.03-22.22-22.32-22.12-12.02.1-21.83,9.89-21.95,21.91-.09,9.16,5.42,17.06,13.3,20.5.28.12.47.38.51.69.11.86.24,1.73.37,2.6.04.25-.21.45-.45.37-9.98-3.51-17.12-13.07-16.98-24.26.17-13.81,11.49-25.01,25.3-25.05Zm.07,31.59c2.25,0,4.15.73,5.23,1.88.56.6.86,1.21.96,2.08.18,1.68.08,3.14-.12,5.46-.19,2.21-.55,5.16-1.01,8.16-.33,2.14-.6,3.29-.85,4.12-.4,1.34-1.89,2.51-4.21,2.51s-3.81-1.17-4.21-2.51c-.24-.82-.51-1.98-.85-4.12-.47-3-.82-5.95-1.01-8.16-.2-2.32-.3-3.77-.12-5.46.09-.87.39-1.48.96-2.08,1.09-1.14,2.99-1.88,5.24-1.88Z"/>
  </g>
  <g>
    <g>
      <path class="cls-2" d="m175.06,56.12c7.57,0,12.84,5.22,12.84,12.81s-5.38,12.87-13.03,12.87h-8.38v13.33h-6.05v-39h14.62Zm-8.57,20.6h6.95c5.27,0,8.27-2.84,8.27-7.76s-3-7.73-8.24-7.73h-6.97v15.49h0Z"/>
      <path class="cls-2" d="m188.79,80.9c0-9.13,5.38-14.73,13.49-14.73s13.49,5.6,13.49,14.73-5.35,14.76-13.49,14.76-13.49-5.6-13.49-14.76Zm21.03,0c0-6.3-2.97-9.92-7.54-9.92s-7.54,3.62-7.54,9.92,2.97,9.95,7.54,9.95,7.54-3.62,7.54-9.95Z"/>
      <path class="cls-2" d="m219.01,80.9c0-8.97,4.76-14.68,11.89-14.68,4.08,0,7.32,2.05,8.92,5.19h.11v-15.3h5.87v39h-5.67v-4.84h-.11c-1.68,3.24-4.92,5.32-9.05,5.32-7.19,0-11.95-5.73-11.95-14.7Zm5.98,0c0,6,2.89,9.76,7.52,9.76s7.49-3.81,7.49-9.76-3-9.76-7.49-9.76c-4.62,0-7.52,3.79-7.52,9.76Z"/>
      <path class="cls-2" d="m269.95,76.47c-.59-3.03-2.86-5.43-6.68-5.43-4.51,0-7.49,3.76-7.49,9.87s3,9.87,7.54,9.87c3.59,0,5.95-1.97,6.62-5.27h5.62c-.62,6.05-5.46,10.16-12.3,10.16-8.14,0-13.43-5.57-13.43-14.76s5.3-14.73,13.38-14.73c7.32,0,11.79,4.7,12.3,10.3h-5.57Z"/>
      <path class="cls-2" d="m278.58,87.03c0-4.98,3.81-8.03,10.57-8.41l7.79-.46v-2.19c0-3.16-2.14-5.05-5.7-5.05-3.38,0-5.49,1.62-6,4.16h-5.51c.32-5.14,4.7-8.92,11.73-8.92s11.3,3.65,11.3,9.35v19.6h-5.6v-4.68h-.13c-1.65,3.16-5.24,5.16-8.97,5.16-5.56,0-9.46-3.46-9.46-8.57Zm18.35-2.57v-2.24l-7,.43c-3.49.24-5.46,1.78-5.46,4.22s2.05,4.11,5.19,4.11c4.08,0,7.27-2.81,7.27-6.51Z"/>
      <path class="cls-2" d="m318.52,66.17c6.62,0,10.92,3.68,11.11,8.92h-5.49c-.32-2.76-2.35-4.49-5.62-4.49s-5.27,1.54-5.27,3.81c0,1.78,1.3,3,4.38,3.7l4.62,1.05c5.81,1.35,8.03,3.62,8.03,7.73,0,5.19-4.84,8.76-11.54,8.76-7.11,0-11.38-3.49-11.92-8.89h5.78c.54,2.97,2.57,4.43,6.14,4.43s5.67-1.46,5.67-3.78c0-1.84-1.05-2.92-4.16-3.62l-4.62-1.08c-5.4-1.24-8.08-3.84-8.08-7.97,0-5.08,4.43-8.57,10.97-8.57Z"/>
      <path class="cls-2" d="m342.5,59.95v6.73h5.4v4.62h-5.4v15.68c0,2.46,1.08,3.57,3.46,3.57.59,0,1.54-.05,1.92-.13v4.62c-.65.16-1.94.27-3.24.27-5.76,0-8-2.19-8-7.68v-16.32h-4.13v-4.62h4.13v-6.73h5.87Z"/>
      <path class="cls-2" d="m362.99,66.17c6.62,0,10.92,3.68,11.11,8.92h-5.49c-.32-2.76-2.35-4.49-5.62-4.49s-5.27,1.54-5.27,3.81c0,1.78,1.3,3,4.38,3.7l4.62,1.05c5.81,1.35,8.03,3.62,8.03,7.73,0,5.19-4.84,8.76-11.54,8.76-7.11,0-11.38-3.49-11.92-8.89h5.78c.54,2.97,2.57,4.43,6.14,4.43s5.67-1.46,5.67-3.78c0-1.84-1.05-2.92-4.16-3.62l-4.62-1.08c-5.4-1.24-8.08-3.84-8.08-7.97,0-5.08,4.43-8.57,10.97-8.57Z"/>
    </g>
    <g>
      <path class="cls-2" d="m144.03,63.39c-3.48-.26-6.43,1.94-8.08,1.94s-4.25-1.89-6.98-1.84c-3.59.05-6.89,2.09-8.74,5.3-3.73,6.47-.95,16.05,2.68,21.3,1.78,2.56,3.89,5.45,6.68,5.35,2.68-.11,3.69-1.73,6.93-1.73s4.15,1.73,6.98,1.68c2.88-.05,4.71-2.62,6.47-5.19,2.04-2.98,2.88-5.86,2.93-6.01-.06-.03-5.61-2.16-5.67-8.55-.05-5.35,4.37-7.92,4.57-8.04-2.51-3.7-6.38-4.1-7.74-4.2Z"/>
      <path class="cls-2" d="m141.89,59.92c1.48-1.78,2.47-4.27,2.2-6.75-2.13.08-4.7,1.42-6.23,3.2-1.37,1.58-2.57,4.11-2.24,6.54,2.37.18,4.79-1.2,6.27-2.99Z"/>
    </g>
  </g>
  <g>
    <path class="cls-2" d="m120.82,24.77h2.92v16.27h8.8v2.52h-11.72v-18.79Z"/>
    <path class="cls-2" d="m135.97,25.14c0-.98.79-1.77,1.77-1.77s1.77.79,1.77,1.77-.81,1.76-1.77,1.76-1.77-.8-1.77-1.76Zm.35,4.28h2.81v14.14h-2.81v-14.14Z"/>
    <path class="cls-2" d="m142.93,39.86v-.02h2.83v.02c.36,1.07,1.39,1.78,3.07,1.78s2.95-.79,2.95-1.95v-.03c0-.88-.66-1.49-2.31-1.86l-2.25-.52c-2.67-.61-3.91-1.82-3.91-3.89h0c0-2.47,2.29-4.24,5.49-4.24s5.3,1.62,5.55,3.92h0s-2.69.01-2.69.01v-.03c-.27-.99-1.27-1.73-2.86-1.73s-2.67.77-2.67,1.9v.03c0,.88.65,1.43,2.24,1.81l2.24.51c2.72.64,4.02,1.8,4.02,3.84v.03c0,2.62-2.5,4.4-5.86,4.4-3.41,0-5.57-1.6-5.85-3.96Z"/>
    <path class="cls-2" d="m159.23,39.84v-8.19h-2.21v-2.23h2.21v-3.57h2.88v3.57h3.03v2.23h-3.03v7.51c0,1.52.57,2.15,1.96,2.15.43,0,.68-.01,1.07-.05v2.26c-.46.08-.98.14-1.52.14-3.11,0-4.39-1.1-4.39-3.82Z"/>
    <path class="cls-2" d="m167.95,36.53v-.02c0-4.41,2.55-7.37,6.5-7.37s6.36,2.85,6.36,7.1v.99h-10.02c.05,2.71,1.54,4.28,3.87,4.28,1.81,0,2.89-.9,3.23-1.63l.05-.1h2.72s-.03.1-.03.1c-.47,1.86-2.42,3.95-6.04,3.95-4.14,0-6.64-2.82-6.64-7.3Zm2.88-1.32h7.19c-.22-2.53-1.64-3.75-3.55-3.75s-3.38,1.32-3.63,3.75Z"/>
    <path class="cls-2" d="m184.55,29.42h2.83v2.15h.21c.69-1.51,2.04-2.42,4.1-2.42,3.16,0,4.91,1.89,4.91,5.26v9.15h-2.81v-8.49c0-2.34-.98-3.5-3.05-3.5s-3.36,1.42-3.36,3.7v8.3h-2.83v-14.15Z"/>
    <path class="cls-2" d="m207.85,36.5v-.03c0-4.55,2.55-7.33,6.69-7.33s6.68,2.77,6.68,7.33v.03c0,4.56-2.54,7.33-6.68,7.33s-6.69-2.77-6.69-7.33Zm10.49,0v-.03c0-3.14-1.38-4.98-3.8-4.98s-3.8,1.84-3.8,4.98v.03c0,3.14,1.37,4.98,3.8,4.98s3.8-1.85,3.8-4.98Z"/>
    <path class="cls-2" d="m224.95,29.42h2.82v2.15h.21c.69-1.51,2.05-2.42,4.1-2.42,3.17,0,4.91,1.89,4.91,5.26v9.15h-2.81v-8.49c0-2.34-.98-3.5-3.05-3.5s-3.36,1.42-3.36,3.7v8.3h-2.82v-14.15Z"/>
  </g>
</svg>