<?xml version="1.0" encoding="utf-8"?>
<!-- Generator: Adobe Illustrator 28.0.0, SVG Export Plug-In . SVG Version: 6.00 Build 0)  -->
<svg version="1.1" id="图层_1" xmlns="http://www.w3.org/2000/svg" xmlns:xlink="http://www.w3.org/1999/xlink" x="0px" y="0px"
	 viewBox="0 0 396.52 120" style="enable-background:new 0 0 396.52 120;" xml:space="preserve">
<style type="text/css">
	.st0{display:none;}
	.st1{display:inline;fill:none;stroke:#FAE67B;stroke-width:11;stroke-linejoin:round;stroke-miterlimit:10;}
	.st2{fill:url(#SVGID_1_);}
	.st3{fill:#FFFFFF;}
</style>
<g class="st0">
	<polyline class="st1" points="1599.84,-2122.66 1608.34,-2167.16 1612.84,-2122.66 	"/>
	<line class="st1" x1="1608.34" y1="-2167.16" x2="1651" y2="-2168.73"/>
</g>
<g>
	<path d="M23.75,119.98c-0.96,0-1.89-0.01-2.84-0.03c-1.75-0.05-3.83-0.15-5.86-0.51c-1.91-0.35-3.62-0.91-5.2-1.72
		c-1.63-0.83-3.11-1.9-4.38-3.19c-1.3-1.27-2.37-2.74-3.2-4.38c-0.81-1.58-1.37-3.28-1.7-5.2c-0.38-2.11-0.48-4.25-0.52-5.88
		C0.03,98.41,0,96.21,0,96.21V23.74c0,0,0.03-2.17,0.05-2.81c0.04-1.64,0.14-3.78,0.52-5.87c0.33-1.92,0.89-3.62,1.7-5.21
		c0.83-1.64,1.9-3.12,3.18-4.39c1.3-1.3,2.77-2.37,4.4-3.21c1.61-0.82,3.31-1.38,5.19-1.71c2.11-0.38,4.25-0.48,5.88-0.52L23.75,0
		h349l2.86,0.04c1.61,0.04,3.75,0.13,5.83,0.51c1.89,0.33,3.6,0.89,5.24,1.72c1.61,0.82,3.08,1.9,4.37,3.19
		c1.28,1.27,2.36,2.75,3.21,4.4c0.81,1.6,1.36,3.3,1.68,5.17c0.36,1.98,0.48,4.01,0.55,5.92c0.01,0.89,0.01,1.84,0.01,2.79
		c0.03,1.18,0.03,2.3,0.03,3.43v65.65c0,1.14,0,2.25-0.03,3.37c0,1.02,0,1.95-0.01,2.92c-0.07,1.85-0.18,3.88-0.54,5.82
		c-0.33,1.92-0.88,3.62-1.69,5.24c-0.85,1.63-1.92,3.1-3.19,4.35c-1.3,1.31-2.77,2.38-4.39,3.21c-1.63,0.83-3.29,1.37-5.23,1.73
		c-2.01,0.36-4.09,0.46-5.86,0.51c-0.92,0.02-1.88,0.03-2.81,0.03l-3.4,0.01L23.75,119.98z"/>
	<g>
		<g>
			
				<linearGradient id="SVGID_1_" gradientUnits="userSpaceOnUse" x1="60.4062" y1="-4059.8699" x2="60.4062" y2="-4138.8086" gradientTransform="matrix(1 0 0 -1 0 -4039.3457)">
				<stop  offset="0" style="stop-color:#D46EFB"/>
				<stop  offset="1" style="stop-color:#822BC0"/>
			</linearGradient>
			<path class="st2" d="M99.87,45.22c0-0.94,0-1.89-0.01-2.83c-0.01-0.79-0.01-1.59-0.03-2.38c-0.05-1.73-0.15-3.47-0.45-5.19
				c-0.31-1.74-0.82-3.35-1.62-4.93c-0.79-1.55-1.82-2.97-3.05-4.2c-1.23-1.23-2.65-2.26-4.2-3.05c-1.58-0.8-3.19-1.31-4.93-1.62
				c-1.71-0.31-3.46-0.41-5.19-0.45c-0.79-0.02-1.59-0.03-2.38-0.03c-0.94-0.01-1.89-0.01-2.83-0.01H45.63c-0.94,0-1.89,0-2.83,0.01
				c-0.79,0.01-1.59,0.01-2.38,0.03c-1.73,0.05-3.48,0.15-5.19,0.45c-1.73,0.31-3.35,0.82-4.93,1.62c-1.55,0.79-2.97,1.82-4.2,3.05
				c-1.23,1.23-2.26,2.65-3.05,4.2c-0.8,1.58-1.31,3.19-1.62,4.93c-0.31,1.71-0.41,3.45-0.45,5.19c-0.02,0.79-0.03,1.59-0.03,2.38
				c-0.01,0.94-0.01,1.89-0.01,2.83v29.55c0,0.94,0,1.89,0.01,2.83c0.01,0.79,0.01,1.59,0.03,2.38c0.05,1.73,0.15,3.47,0.45,5.19
				c0.31,1.74,0.82,3.35,1.62,4.93c0.79,1.55,1.82,2.97,3.05,4.2c1.23,1.23,2.65,2.26,4.2,3.05c1.58,0.8,3.19,1.31,4.93,1.62
				c1.71,0.31,3.46,0.41,5.19,0.45c0.79,0.02,1.59,0.03,2.38,0.03c0.94,0.01,1.89,0.01,2.83,0.01h29.55c0.94,0,1.89,0,2.83-0.01
				c0.79-0.01,1.59-0.01,2.38-0.03c1.73-0.05,3.48-0.15,5.19-0.45c1.73-0.31,3.35-0.82,4.93-1.62c1.55-0.79,2.97-1.82,4.2-3.05
				s2.26-2.65,3.05-4.2c0.8-1.58,1.31-3.19,1.62-4.93c0.31-1.71,0.41-3.45,0.45-5.19c0.02-0.79,0.03-1.59,0.03-2.38
				c0.01-0.94,0.01-1.89,0.01-2.83L99.87,45.22L99.87,45.22z"/>
		</g>
		<path class="st3" d="M60.38,49.23c3.26,0,5.91,2.64,5.91,5.9c0,3.26-2.64,5.9-5.91,5.9c-3.26,0-5.91-2.64-5.91-5.9
			S57.12,49.23,60.38,49.23z M77.38,57.21c0,5.83-2.95,10.98-7.43,14.04c-0.23,0.16-0.54-0.02-0.52-0.3
			c0.06-1.04,0.08-1.95,0.03-2.9c-0.02-0.31,0.1-0.61,0.33-0.82c2.68-2.51,4.35-6.07,4.35-10.02c0-7.76-6.47-14.04-14.3-13.74
			c-7.21,0.28-13.02,6.16-13.21,13.37c-0.11,4.09,1.58,7.8,4.34,10.39c0.23,0.21,0.35,0.51,0.33,0.82c-0.05,0.94-0.03,1.86,0.03,2.9
			c0.02,0.28-0.29,0.45-0.52,0.3c-4.54-3.1-7.51-8.34-7.43-14.26c0.12-9,7.33-16.42,16.33-16.76
			C69.39,39.85,77.38,47.61,77.38,57.21z M60.31,31.83c14.03-0.04,25.45,11.36,25.45,25.37c0,11.05-7.1,20.47-16.98,23.94
			c-0.24,0.08-0.49-0.12-0.45-0.37c0.13-0.87,0.25-1.74,0.37-2.6c0.04-0.3,0.23-0.56,0.51-0.69c7.82-3.42,13.3-11.22,13.3-20.29
			c0-12.26-10.03-22.22-22.32-22.12c-12.02,0.1-21.83,9.89-21.95,21.91c-0.09,9.16,5.42,17.06,13.3,20.5
			c0.28,0.12,0.47,0.38,0.51,0.69c0.11,0.86,0.24,1.73,0.37,2.6c0.04,0.25-0.21,0.45-0.45,0.37C42.01,77.64,34.87,68.07,35,56.88
			C35.17,43.08,46.49,31.87,60.31,31.83z M60.38,63.43c2.25,0,4.15,0.73,5.23,1.88c0.56,0.6,0.86,1.21,0.96,2.08
			c0.18,1.68,0.08,3.14-0.12,5.46C66.26,75.05,65.91,78,65.44,81c-0.33,2.14-0.6,3.29-0.85,4.12c-0.4,1.34-1.89,2.51-4.21,2.51
			c-2.33,0-3.81-1.17-4.21-2.51c-0.24-0.82-0.51-1.98-0.85-4.12c-0.47-3-0.82-5.95-1.01-8.16c-0.2-2.32-0.3-3.77-0.12-5.46
			c0.09-0.87,0.39-1.48,0.96-2.08C56.23,64.16,58.14,63.43,60.38,63.43z"/>
	</g>
	<g>
		<g>
			<g>
				<g>
					<path class="st3" d="M175.06,56.12c7.57,0,12.84,5.22,12.84,12.81c0,7.62-5.38,12.87-13.03,12.87h-8.38v13.33h-6.05v-39H175.06
						z M166.49,76.71h6.95c5.27,0,8.27-2.84,8.27-7.76c0-4.92-3-7.73-8.24-7.73h-6.97L166.49,76.71L166.49,76.71z"/>
					<path class="st3" d="M188.79,80.9c0-9.13,5.38-14.73,13.49-14.73c8.11,0,13.49,5.6,13.49,14.73c0,9.16-5.35,14.76-13.49,14.76
						C194.14,95.66,188.79,90.06,188.79,80.9z M209.82,80.9c0-6.3-2.97-9.92-7.54-9.92c-4.57,0-7.54,3.62-7.54,9.92
						c0,6.32,2.97,9.95,7.54,9.95C206.87,90.85,209.82,87.23,209.82,80.9z"/>
					<path class="st3" d="M219.01,80.9c0-8.97,4.76-14.68,11.89-14.68c4.08,0,7.32,2.05,8.92,5.19h0.11v-15.3h5.87v39h-5.67v-4.84
						h-0.11c-1.68,3.24-4.92,5.32-9.05,5.32C223.77,95.6,219.01,89.87,219.01,80.9z M224.99,80.9c0,6,2.89,9.76,7.52,9.76
						c4.49,0,7.49-3.81,7.49-9.76c0-5.89-3-9.76-7.49-9.76C227.88,71.14,224.99,74.93,224.99,80.9z"/>
					<path class="st3" d="M269.95,76.47c-0.59-3.03-2.86-5.43-6.68-5.43c-4.51,0-7.49,3.76-7.49,9.87c0,6.24,3,9.87,7.54,9.87
						c3.59,0,5.95-1.97,6.62-5.27h5.62c-0.62,6.05-5.46,10.16-12.3,10.16c-8.14,0-13.43-5.57-13.43-14.76
						c0-9.03,5.3-14.73,13.38-14.73c7.32,0,11.79,4.7,12.3,10.3L269.95,76.47z"/>
					<path class="st3" d="M278.58,87.03c0-4.98,3.81-8.03,10.57-8.41l7.79-0.46v-2.19c0-3.16-2.14-5.05-5.7-5.05
						c-3.38,0-5.49,1.62-6,4.16h-5.51c0.32-5.14,4.7-8.92,11.73-8.92c6.89,0,11.3,3.65,11.3,9.35v19.6h-5.6v-4.68h-0.13
						c-1.65,3.16-5.24,5.16-8.97,5.16C282.47,95.6,278.58,92.14,278.58,87.03z M296.93,84.47v-2.24l-7,0.43
						c-3.49,0.24-5.46,1.78-5.46,4.22c0,2.49,2.05,4.11,5.19,4.11C293.74,90.98,296.93,88.17,296.93,84.47z"/>
					<path class="st3" d="M318.52,66.17c6.62,0,10.92,3.68,11.11,8.92h-5.49c-0.32-2.76-2.35-4.49-5.62-4.49
						c-3.16,0-5.27,1.54-5.27,3.81c0,1.78,1.3,3,4.38,3.7l4.62,1.05c5.81,1.35,8.03,3.62,8.03,7.73c0,5.19-4.84,8.76-11.54,8.76
						c-7.11,0-11.38-3.49-11.92-8.89h5.78c0.54,2.97,2.57,4.43,6.14,4.43c3.51,0,5.67-1.46,5.67-3.78c0-1.84-1.05-2.92-4.16-3.62
						l-4.62-1.08c-5.4-1.24-8.08-3.84-8.08-7.97C307.55,69.66,311.98,66.17,318.52,66.17z"/>
					<path class="st3" d="M342.5,59.95v6.73h5.4v4.62h-5.4v15.68c0,2.46,1.08,3.57,3.46,3.57c0.59,0,1.54-0.05,1.92-0.13v4.62
						c-0.65,0.16-1.94,0.27-3.24,0.27c-5.76,0-8-2.19-8-7.68V71.31h-4.13v-4.62h4.13v-6.73H342.5z"/>
					<path class="st3" d="M362.99,66.17c6.62,0,10.92,3.68,11.11,8.92h-5.49c-0.32-2.76-2.35-4.49-5.62-4.49
						c-3.16,0-5.27,1.54-5.27,3.81c0,1.78,1.3,3,4.38,3.7l4.62,1.05c5.81,1.35,8.03,3.62,8.03,7.73c0,5.19-4.84,8.76-11.54,8.76
						c-7.11,0-11.38-3.49-11.92-8.89h5.78c0.54,2.97,2.57,4.43,6.14,4.43c3.51,0,5.67-1.46,5.67-3.78c0-1.84-1.05-2.92-4.16-3.62
						l-4.62-1.08c-5.4-1.24-8.08-3.84-8.08-7.97C352.02,69.66,356.45,66.17,362.99,66.17z"/>
				</g>
			</g>
		</g>
		<g>
			<path class="st3" d="M144.03,63.39c-3.48-0.26-6.43,1.94-8.08,1.94c-1.67,0-4.25-1.89-6.98-1.84c-3.59,0.05-6.89,2.09-8.74,5.3
				c-3.73,6.47-0.95,16.05,2.68,21.3c1.78,2.56,3.89,5.45,6.68,5.35c2.68-0.11,3.69-1.73,6.93-1.73c3.23,0,4.15,1.73,6.98,1.68
				c2.88-0.05,4.71-2.62,6.47-5.19c2.04-2.98,2.88-5.86,2.93-6.01c-0.06-0.03-5.61-2.16-5.67-8.55c-0.05-5.35,4.37-7.92,4.57-8.04
				C149.27,63.89,145.4,63.49,144.03,63.39z"/>
			<path class="st3" d="M141.89,59.92c1.48-1.78,2.47-4.27,2.2-6.75c-2.13,0.08-4.7,1.42-6.23,3.2c-1.37,1.58-2.57,4.11-2.24,6.54
				C137.99,63.1,140.41,61.71,141.89,59.92z"/>
		</g>
	</g>
	<g>
		<path class="st3" d="M120.82,24.77h2.92v16.27h8.8v2.52h-11.72V24.77z"/>
		<path class="st3" d="M135.97,25.14c0-0.98,0.79-1.77,1.77-1.77c0.97,0,1.77,0.79,1.77,1.77c0,0.96-0.81,1.76-1.77,1.76
			C136.76,26.9,135.97,26.1,135.97,25.14z M136.32,29.42h2.81v14.14h-2.81V29.42z"/>
		<path class="st3" d="M142.93,39.86v-0.02h2.83l0.01,0.02c0.35,1.07,1.38,1.78,3.06,1.78c1.74,0,2.95-0.79,2.95-1.95v-0.03
			c0-0.88-0.66-1.49-2.31-1.86l-2.25-0.52c-2.67-0.61-3.91-1.82-3.91-3.89v-0.01c0-2.46,2.29-4.23,5.49-4.23
			c3.23,0,5.3,1.62,5.55,3.92v0.01h-2.69v-0.03c-0.27-0.99-1.27-1.73-2.86-1.73c-1.55,0-2.67,0.77-2.67,1.9v0.03
			c0,0.88,0.65,1.43,2.24,1.81l2.24,0.51c2.72,0.64,4.02,1.8,4.02,3.84v0.03c0,2.62-2.5,4.4-5.86,4.4
			C145.36,43.83,143.21,42.23,142.93,39.86z"/>
		<path class="st3" d="M159.23,39.84v-8.19h-2.21v-2.23h2.21v-3.57h2.88v3.57h3.03v2.23h-3.03v7.51c0,1.52,0.57,2.15,1.96,2.15
			c0.43,0,0.68-0.01,1.07-0.05v2.26c-0.46,0.08-0.98,0.14-1.52,0.14C160.5,43.65,159.23,42.56,159.23,39.84z"/>
		<path class="st3" d="M167.95,36.53v-0.02c0-4.41,2.55-7.37,6.5-7.37c3.94,0,6.36,2.85,6.36,7.1v0.99h-10.02
			c0.05,2.71,1.54,4.28,3.87,4.28c1.81,0,2.89-0.9,3.23-1.63l0.05-0.1l2.72-0.01l-0.03,0.12c-0.47,1.86-2.42,3.95-6.04,3.95
			C170.45,43.83,167.95,41.01,167.95,36.53z M170.83,35.21h7.19c-0.22-2.53-1.64-3.75-3.55-3.75
			C172.54,31.47,171.08,32.78,170.83,35.21z"/>
		<path class="st3" d="M184.55,29.42h2.83v2.15h0.21c0.69-1.51,2.04-2.42,4.1-2.42c3.16,0,4.91,1.89,4.91,5.26v9.15h-2.81v-8.49
			c0-2.34-0.98-3.5-3.05-3.5s-3.36,1.42-3.36,3.7v8.3h-2.83V29.42z"/>
		<path class="st3" d="M207.85,36.5v-0.03c0-4.55,2.55-7.33,6.69-7.33c4.13,0,6.68,2.77,6.68,7.33v0.03c0,4.56-2.54,7.33-6.68,7.33
			C210.39,43.83,207.85,41.06,207.85,36.5z M218.35,36.5v-0.03c0-3.14-1.38-4.98-3.8-4.98c-2.43,0-3.8,1.84-3.8,4.98v0.03
			c0,3.14,1.37,4.98,3.8,4.98C216.97,41.48,218.35,39.63,218.35,36.5z"/>
		<path class="st3" d="M224.95,29.42h2.82v2.15h0.21c0.69-1.51,2.05-2.42,4.1-2.42c3.17,0,4.91,1.89,4.91,5.26v9.15h-2.81v-8.49
			c0-2.34-0.98-3.5-3.05-3.5s-3.36,1.42-3.36,3.7v8.3h-2.82V29.42z"/>
	</g>
</g>
</svg>
