<?xml version="1.0" encoding="utf-8"?>
<!-- Generator: Adobe Illustrator 28.0.0, SVG Export Plug-In . SVG Version: 6.00 Build 0)  -->
<svg version="1.1" id="图层_1" xmlns="http://www.w3.org/2000/svg" xmlns:xlink="http://www.w3.org/1999/xlink" x="0px" y="0px"
	 viewBox="0 0 497.54 120" style="enable-background:new 0 0 497.54 120;" xml:space="preserve">
<style type="text/css">
	.st0{display:none;}
	.st1{display:inline;fill:none;stroke:#FAE67B;stroke-width:11;stroke-linejoin:round;stroke-miterlimit:10;}
	.st2{fill-rule:evenodd;clip-rule:evenodd;}
	.st3{fill-rule:evenodd;clip-rule:evenodd;fill:#1ED660;}
	.st4{fill-rule:evenodd;clip-rule:evenodd;fill:#FFFFFF;}
</style>
<g class="st0">
	<polyline class="st1" points="2199.38,-2122.66 2207.88,-2167.16 2212.38,-2122.66 	"/>
	<line class="st1" x1="2207.88" y1="-2167.16" x2="2250.53" y2="-2168.73"/>
</g>
<g id="spotify-podcast-badge-blk-grn-660x160_00000092418535940607769100000011349185137073368193_">
	<g id="Group-2_00000001663356870743188650000017175097268185307792_">
		<path id="Path_00000147206767407592731710000013533124256984939670_" class="st2" d="M22.36,0c-2.36,0.06-4.23,0.21-6,0.53
			c-2.02,0.35-3.86,0.96-5.64,1.86c-1.77,0.91-3.39,2.09-4.8,3.49c-1.41,1.39-2.59,3.01-3.49,4.8c-0.9,1.75-1.5,3.59-1.85,5.64
			c-0.32,1.77-0.48,3.62-0.54,5.99c-0.01,0.41-0.02,0.83-0.03,1.38c0,0.14,0,0.25-0.01,0.49C0.01,24.64,0,24.84,0,25.08
			c0,1.64,0,1.64,0,3.3v63.2c0,1.33,0,1.33,0,2.64c0,0.33,0,0.33,0,0.66c0,0.25,0.01,0.45,0.01,0.9c0,0.24,0,0.35,0.01,0.48
			c0.01,0.56,0.02,0.98,0.03,1.39c0.06,2.37,0.21,4.22,0.54,5.99c0.36,2.05,0.96,3.9,1.85,5.64c0.91,1.78,2.09,3.4,3.49,4.78
			c1.4,1.41,3.02,2.59,4.8,3.49c1.75,0.9,3.58,1.5,5.64,1.87c1.75,0.31,3.57,0.46,6,0.53c0.97,0.02,1.88,0.03,2.77,0.03
			c0.46,0,0.94,0,1.46,0c0.51,0,0.92,0,1.84,0h440.67c0.82,0,1.18,0,1.64,0c0.6,0,1.13,0,1.64-0.01c0.89,0,1.83-0.01,2.78-0.03
			c2.44-0.07,4.25-0.21,5.99-0.53c2.06-0.37,3.89-0.97,5.66-1.87c1.78-0.9,3.4-2.08,4.79-3.49c1.39-1.37,2.57-2.99,3.5-4.78
			c0.89-1.77,1.49-3.62,1.84-5.65c0.32-1.72,0.47-3.45,0.55-5.98c0.01-0.44,0.01-0.89,0.01-1.4c0-0.38,0-0.69,0-1.39
			c0-0.21,0.01-0.43,0.01-0.66c0.01-0.73,0.01-1.31,0.01-2.63v-63.2c0-1.65,0-2.38-0.02-3.3c0-0.69,0-1,0-1.39
			c0-0.51,0-0.96-0.01-1.38c-0.09-2.54-0.23-4.27-0.56-6c-0.34-2.02-0.94-3.86-1.83-5.64c-0.92-1.79-2.1-3.41-3.5-4.8
			c-1.4-1.4-3.02-2.58-4.79-3.49c-1.8-0.9-3.64-1.51-5.67-1.86c-1.76-0.32-3.62-0.47-5.98-0.53"/>
		<path id="Combined-Shape_00000077289895614139823930000015179649978687803796_" class="st3" d="M269.45,55.95
			c1.56,0.94,3.59,0.42,4.52-1.16c0.93-1.57,0.42-3.61-1.15-4.55c-13.1-7.82-33.82-8.55-46.28-4.75c-1.74,0.53-2.73,2.39-2.2,4.14
			c0.53,1.75,2.37,2.74,4.12,2.21C239.31,48.53,258.07,49.16,269.45,55.95z M269.08,66.01c0.8-1.3,0.39-3-0.91-3.8
			c-10.89-6.73-26.83-8.63-39.64-4.71c-1.45,0.44-2.27,1.99-1.83,3.45c0.44,1.46,1.98,2.29,3.43,1.84
			c11.22-3.42,25.68-1.73,35.16,4.14C266.59,67.72,268.28,67.31,269.08,66.01z M264.76,75.67c0.63-1.04,0.31-2.4-0.73-3.04
			c-9.3-5.72-20.83-7.05-34.28-3.96c-1.19,0.27-1.93,1.46-1.65,2.65c0.27,1.19,1.45,1.94,2.63,1.66c12.28-2.82,22.71-1.67,31,3.42
			C262.77,77.05,264.12,76.72,264.76,75.67z M248.57,24.49c19.49,0,35.29,15.89,35.29,35.48c0,19.6-15.8,35.49-35.29,35.49
			c-19.49,0-35.29-15.89-35.29-35.49C213.29,40.38,229.09,24.49,248.57,24.49z M309.3,57.25c7.42,1.82,10.45,4.63,10.45,9.73
			c0,6.03-4.58,9.92-11.67,9.92c-5.01,0-9.65-1.79-13.43-5.18c-0.16-0.14-0.18-0.39-0.04-0.56l3.34-3.99
			c0.07-0.08,0.17-0.13,0.27-0.14c0.1-0.01,0.21,0.03,0.29,0.1c3.25,2.83,6.15,4.03,9.7,4.03c3.2,0,5.19-1.39,5.19-3.63
			c0-2.02-0.98-3.15-6.81-4.5c-6.85-1.66-10.81-3.82-10.81-9.91c0-5.68,4.6-9.65,11.17-9.65c4.47,0,8.3,1.33,11.7,4.08
			c0.16,0.13,0.2,0.37,0.08,0.55l-2.98,4.22c-0.06,0.09-0.16,0.15-0.26,0.16c-0.11,0.02-0.21-0.01-0.3-0.07
			c-2.86-2.14-5.58-3.18-8.33-3.18c-2.83,0-4.74,1.37-4.74,3.41C302.12,54.77,303.2,55.79,309.3,57.25z M340.93,64.08
			c0-4.23-2.7-7.3-6.41-7.3c-3.73,0-6.54,3.14-6.54,7.3c0,4.17,2.81,7.3,6.54,7.3C338.3,71.38,340.93,68.38,340.93,64.08z
			 M335.78,51.21c5.71,0,11.49,4.42,11.49,12.87c0,8.45-5.78,12.87-11.49,12.87c-3.07,0-5.59-1.15-7.67-3.49v9.84
			c0,0.22-0.18,0.4-0.4,0.4h-5.46c-0.22,0-0.4-0.18-0.4-0.4V52.11c0-0.22,0.18-0.4,0.4-0.4h5.46c0.22,0,0.4,0.18,0.4,0.4v2.81
			C330.19,52.43,332.71,51.21,335.78,51.21z M362.09,71.43c3.95,0,6.81-3.05,6.81-7.26c0-4.19-2.97-7.35-6.9-7.35
			c-3.92,0-6.77,3.05-6.77,7.26C355.23,68.27,358.18,71.43,362.09,71.43z M362.09,51.21c7.33,0,13.07,5.65,13.07,12.87
			c0,7.24-5.78,12.92-13.16,12.92c-7.3,0-13.02-5.63-13.02-12.82C348.98,56.9,354.74,51.21,362.09,51.21z M390.86,51.71
			c0.22,0,0.4,0.18,0.4,0.4v4.71c0,0.22-0.18,0.4-0.4,0.4h-6v11.34c0,1.79,0.78,2.59,2.53,2.59c1.14,0,2.15-0.25,3.2-0.78
			c0.12-0.06,0.27-0.06,0.39,0.02c0.12,0.07,0.19,0.2,0.19,0.34v4.49c0,0.14-0.08,0.28-0.2,0.35c-1.53,0.87-3.15,1.28-5.11,1.28
			c-4.81,0-7.25-2.5-7.25-7.43v-12.2h-2.62c-0.22,0-0.4-0.18-0.4-0.4v-4.71c0-0.22,0.18-0.4,0.4-0.4h2.62v-6.17
			c0-0.22,0.18-0.4,0.4-0.4h5.45c0.22,0,0.4,0.18,0.4,0.4v6.17H390.86z M411.78,51.74h9.32c0.17,0,0.31,0.1,0.37,0.26l6.37,16.72
			L433.66,52c0.06-0.16,0.21-0.27,0.38-0.27h5.68c0.13,0,0.25,0.07,0.33,0.17c0.08,0.11,0.09,0.25,0.04,0.37l-9.46,24.59
			c-1.96,5.08-4.19,6.96-8.22,6.96c-2.15,0-3.9-0.45-5.83-1.5c-0.18-0.1-0.26-0.33-0.17-0.52l1.85-4.08
			c0.04-0.1,0.13-0.18,0.24-0.22c0.11-0.03,0.22-0.02,0.32,0.03c1.03,0.57,2.05,0.86,3.01,0.86c1.19,0,2.06-0.39,2.95-2.37
			l-7.8-18.81h-5.09v18.82c0,0.22-0.18,0.4-0.4,0.4h-5.46c-0.22,0-0.4-0.18-0.4-0.4V57.23h-2.62c-0.22,0-0.4-0.18-0.4-0.4v-4.74
			c0-0.22,0.18-0.4,0.4-0.4h2.62v-1.16c0-5.4,2.66-8.25,7.7-8.25c2.07,0,3.45,0.33,4.53,0.66c0.17,0.05,0.28,0.21,0.28,0.39v4.62
			c0,0.13-0.06,0.25-0.16,0.33c-0.1,0.08-0.23,0.1-0.36,0.06c-1.02-0.34-1.94-0.57-3.07-0.57c-1.91,0-2.76,0.99-2.76,3.22V51.74z
			 M399.65,51.71c0.22,0,0.4,0.18,0.4,0.4v23.93c0,0.22-0.18,0.4-0.4,0.4h-5.46c-0.22,0-0.4-0.18-0.4-0.4V52.11
			c0-0.22,0.18-0.4,0.4-0.4H399.65z M396.95,40.81c2.16,0,3.91,1.76,3.91,3.93c0,2.17-1.75,3.94-3.91,3.94
			c-2.16,0-3.92-1.76-3.92-3.94C393.03,42.57,394.79,40.81,396.95,40.81z M444.97,54.09h-1v1.28h1c0.5,0,0.8-0.25,0.8-0.64
			C445.77,54.32,445.47,54.09,444.97,54.09z M445.62,55.92l1.09,1.53h-0.92l-0.98-1.4h-0.84v1.4h-0.77V53.4h1.8
			c0.94,0,1.55,0.48,1.55,1.29C446.55,55.35,446.17,55.76,445.62,55.92z M444.77,52.05c-1.97,0-3.46,1.57-3.46,3.5
			c0,1.92,1.48,3.48,3.43,3.48c1.97,0,3.46-1.57,3.46-3.5C448.2,53.6,446.72,52.05,444.77,52.05z M444.74,59.41
			c-2.16,0-3.84-1.74-3.84-3.86c0-2.12,1.7-3.88,3.86-3.88c2.16,0,3.84,1.74,3.84,3.86C448.6,57.64,446.9,59.41,444.74,59.41z"/>
		<path id="LISTEN-ON_00000109742554243946813460000014810382019860766632_" class="st4" d="M58.84,68.75H47.19v-18.2h3.54v14.81
			h8.11V68.75z M67.29,68.75H63.7v-18.2h3.59V68.75z M86.11,54.89l-3.18,0.98c-0.18-1-1-2.57-3.31-2.57c-1.72,0-2.85,1.1-2.85,2.31
			c0,1,0.64,1.8,1.98,2.05l2.54,0.49c3.31,0.64,5.08,2.8,5.08,5.36c0,2.8-2.34,5.62-6.57,5.62c-4.83,0-6.96-3.11-7.24-5.7l3.29-0.87
			c0.15,1.8,1.41,3.41,3.98,3.41c1.9,0,2.95-0.95,2.95-2.23c0-1.05-0.8-1.87-2.21-2.16l-2.54-0.51c-2.9-0.59-4.77-2.46-4.77-5.21
			c0-3.23,2.9-5.7,6.34-5.7C84,50.16,85.7,52.83,86.11,54.89z M105.29,53.91h-5.75v14.84h-3.57V53.91h-5.75v-3.36h15.07V53.91z
			 M121.54,68.75h-11.4v-18.2h11.4v3.34h-7.85v4.16h7.11v3.16h-7.11v4.21h7.85V68.75z M142.82,68.75h-3.72l-8.27-12.91v12.91h-3.54
			v-18.2h4.42l7.57,12.04V50.55h3.54V68.75z M160,59.64c0,4.11,2.88,6.06,5.67,6.06c2.82,0,5.7-1.95,5.7-6.06
			c0-4.11-2.88-6.06-5.7-6.06C162.87,53.58,160,55.53,160,59.64z M156.33,59.66c0-5.88,4.42-9.5,9.34-9.5c4.95,0,9.37,3.62,9.37,9.5
			c0,5.85-4.42,9.47-9.37,9.47C160.74,69.13,156.33,65.51,156.33,59.66z M196.07,68.75h-3.72l-8.27-12.91v12.91h-3.54v-18.2h4.42
			l7.57,12.04V50.55h3.54V68.75z"/>
	</g>
</g>
</svg>
