<?xml version="1.0" encoding="UTF-8"?>
<svg id="_图层_1" data-name="图层 1" xmlns="http://www.w3.org/2000/svg" viewBox="0 0 497.54 120">
  <defs>
    <style>
      .cls-1 {
        fill: #fff;
      }

      .cls-1, .cls-2 {
        fill-rule: evenodd;
        stroke-width: 0px;
      }

      .cls-2 {
        fill: #979797;
      }
    </style>
  </defs>
  <g id="spotify-podcast-badge-blk-grn-660x160">
    <g id="Group-2">
      <path id="Path" class="cls-2" d="m22.36,0c-2.36.06-4.23.21-6,.53-2.02.35-3.86.96-5.64,1.86-1.77.91-3.39,2.09-4.8,3.49-1.41,1.39-2.59,3.01-3.49,4.8-.9,1.75-1.5,3.59-1.85,5.64-.32,1.77-.48,3.62-.54,5.99-.01.41-.02.83-.03,1.38,0,.14,0,.25,0,.49,0,.45,0,.65-.01.89v69.14q0,.33,0,.66c0,.25,0,.45.01.9,0,.24,0,.35,0,.48,0,.56.02.98.03,1.39.06,2.37.21,4.22.54,5.99.36,2.05.96,3.9,1.85,5.64.91,1.78,2.09,3.4,3.49,4.78,1.4,1.41,3.02,2.59,4.8,3.49,1.75.9,3.58,1.5,5.64,1.87,1.75.31,3.57.46,6,.53.97.02,1.88.03,2.77.03.46,0,.94,0,1.46,0,.51,0,.92,0,1.84,0h440.67c.82,0,1.18,0,1.64,0,.6,0,1.13,0,1.64,0,.89,0,1.83-.01,2.78-.03,2.44-.07,4.25-.21,5.99-.53,2.06-.37,3.89-.97,5.66-1.87,1.78-.9,3.4-2.08,4.79-3.49,1.39-1.37,2.57-2.99,3.5-4.78.89-1.77,1.49-3.62,1.84-5.65.32-1.72.47-3.45.55-5.98,0-.44,0-.89.01-1.4,0-.38,0-.69,0-1.39,0-.21,0-.43.01-.66,0-.73.01-1.31.01-2.63V28.38c0-1.65,0-2.38-.02-3.3,0-.69,0-1,0-1.39,0-.51,0-.96-.01-1.38-.09-2.54-.23-4.27-.56-6-.34-2.02-.94-3.86-1.83-5.64-.92-1.79-2.1-3.41-3.5-4.8-1.4-1.4-3.02-2.58-4.79-3.49-1.8-.9-3.64-1.51-5.67-1.86-1.76-.32-3.62-.47-5.98-.53"/>
      <path id="Combined-Shape" class="cls-1" d="m269.45,55.95c1.56.94,3.59.42,4.52-1.16.93-1.57.42-3.61-1.15-4.55-13.1-7.82-33.82-8.55-46.28-4.75-1.74.53-2.73,2.39-2.2,4.14.53,1.75,2.37,2.74,4.12,2.21,10.86-3.31,29.62-2.69,41,4.1Zm-.37,10.06c.8-1.3.39-3-.91-3.8-10.89-6.73-26.83-8.63-39.64-4.71-1.45.44-2.27,1.99-1.83,3.45.44,1.46,1.98,2.29,3.43,1.84,11.22-3.42,25.68-1.73,35.16,4.14,1.29.8,2.99.39,3.78-.91Zm-4.32,9.66c.63-1.04.31-2.4-.73-3.04-9.3-5.72-20.83-7.05-34.28-3.96-1.19.27-1.93,1.46-1.65,2.65.27,1.19,1.45,1.94,2.63,1.66,12.28-2.82,22.71-1.67,31,3.42,1.04.64,2.39.31,3.02-.74Zm-16.18-51.18c19.49,0,35.29,15.89,35.29,35.48s-15.8,35.49-35.29,35.49-35.29-15.89-35.29-35.49,15.8-35.48,35.29-35.48Zm60.72,32.76c7.42,1.82,10.45,4.63,10.45,9.73,0,6.03-4.58,9.92-11.67,9.92-5.01,0-9.65-1.79-13.43-5.18-.16-.14-.18-.39-.04-.56l3.34-3.99c.07-.08.17-.13.27-.14.1,0,.21.03.29.1,3.25,2.83,6.15,4.03,9.7,4.03,3.2,0,5.19-1.39,5.19-3.63,0-2.02-.98-3.15-6.81-4.5-6.85-1.66-10.81-3.82-10.81-9.91,0-5.68,4.6-9.65,11.17-9.65,4.47,0,8.3,1.33,11.7,4.08.16.13.2.37.08.55l-2.98,4.22c-.06.09-.16.15-.26.16-.11.02-.21,0-.3-.07-2.86-2.14-5.58-3.18-8.33-3.18s-4.74,1.37-4.74,3.41c0,2.15,1.09,3.18,7.18,4.64Zm31.64,6.83c0-4.23-2.7-7.3-6.41-7.3s-6.54,3.14-6.54,7.3,2.81,7.3,6.54,7.3,6.41-3,6.41-7.3Zm-5.15-12.87c5.71,0,11.49,4.42,11.49,12.87s-5.78,12.87-11.49,12.87c-3.07,0-5.59-1.15-7.67-3.49v9.84c0,.22-.18.4-.4.4h-5.46c-.22,0-.4-.18-.4-.4v-31.19c0-.22.18-.4.4-.4h5.46c.22,0,.4.18.4.4v2.81c2.08-2.49,4.6-3.71,7.67-3.71Zm26.3,20.22c3.95,0,6.81-3.05,6.81-7.26s-2.97-7.35-6.9-7.35-6.77,3.05-6.77,7.26,2.95,7.35,6.86,7.35Zm0-20.22c7.33,0,13.07,5.65,13.07,12.87s-5.78,12.92-13.16,12.92-13.02-5.63-13.02-12.82,5.76-12.96,13.11-12.96Zm28.77.5c.22,0,.4.18.4.4v4.71c0,.22-.18.4-.4.4h-6v11.34c0,1.79.78,2.59,2.53,2.59,1.14,0,2.15-.25,3.2-.78.12-.06.27-.06.39.02.12.07.19.2.19.34v4.49c0,.14-.08.28-.2.35-1.53.87-3.15,1.28-5.11,1.28-4.81,0-7.25-2.5-7.25-7.43v-12.2h-2.62c-.22,0-.4-.18-.4-.4v-4.71c0-.22.18-.4.4-.4h2.62v-6.17c0-.22.18-.4.4-.4h5.45c.22,0,.4.18.4.4v6.17h6Zm20.92.02h9.32c.17,0,.31.1.37.26l6.37,16.72,5.82-16.71c.06-.16.21-.27.38-.27h5.68c.13,0,.25.07.33.17.08.11.09.25.04.37l-9.47,24.59c-1.96,5.08-4.19,6.96-8.22,6.96-2.15,0-3.9-.45-5.83-1.5-.18-.1-.26-.33-.17-.52l1.85-4.08c.04-.1.13-.18.24-.22.11-.03.22-.02.32.03,1.03.57,2.05.86,3.01.86,1.19,0,2.06-.39,2.95-2.37l-7.8-18.81h-5.09v18.82c0,.22-.18.4-.4.4h-5.46c-.22,0-.4-.18-.4-.4v-18.82h-2.62c-.22,0-.4-.18-.4-.4v-4.74c0-.22.18-.4.4-.4h2.62v-1.16c0-5.4,2.66-8.25,7.7-8.25,2.07,0,3.45.33,4.53.66.17.05.28.21.28.39v4.62c0,.13-.06.25-.16.33-.1.08-.23.1-.36.06-1.02-.34-1.94-.57-3.07-.57-1.91,0-2.76.99-2.76,3.22v.76Zm-12.13-.02c.22,0,.4.18.4.4v23.93c0,.22-.18.4-.4.4h-5.46c-.22,0-.4-.18-.4-.4v-23.93c0-.22.18-.4.4-.4h5.46Zm-2.7-10.9c2.16,0,3.91,1.76,3.91,3.93s-1.75,3.94-3.91,3.94-3.92-1.76-3.92-3.94,1.75-3.93,3.92-3.93Zm48.02,13.28h-1v1.28h1c.5,0,.8-.25.8-.64,0-.42-.3-.64-.8-.64Zm.65,1.83l1.09,1.53h-.92l-.98-1.4h-.84v1.4h-.77v-4.05h1.8c.94,0,1.55.48,1.55,1.29,0,.66-.38,1.07-.94,1.23Zm-.85-3.87c-1.97,0-3.46,1.57-3.46,3.5s1.48,3.48,3.43,3.48,3.46-1.57,3.46-3.5-1.48-3.48-3.44-3.48Zm-.02,7.36c-2.16,0-3.84-1.74-3.84-3.86s1.7-3.88,3.86-3.88,3.84,1.74,3.84,3.86-1.7,3.88-3.86,3.88Z"/>
      <path id="LISTEN-ON" class="cls-1" d="m58.84,68.75h-11.65v-18.2h3.54v14.81h8.11v3.39Zm8.45,0h-3.59v-18.2h3.59v18.2Zm18.82-13.86l-3.18.98c-.18-1-1-2.57-3.31-2.57-1.72,0-2.85,1.1-2.85,2.31,0,1,.64,1.8,1.98,2.05l2.54.49c3.31.64,5.08,2.8,5.08,5.36,0,2.8-2.34,5.62-6.57,5.62-4.83,0-6.96-3.11-7.24-5.7l3.29-.87c.15,1.8,1.41,3.41,3.98,3.41,1.9,0,2.95-.95,2.95-2.23,0-1.05-.8-1.87-2.21-2.16l-2.54-.51c-2.9-.59-4.77-2.46-4.77-5.21,0-3.23,2.9-5.7,6.34-5.7,4.42,0,6.11,2.67,6.52,4.72Zm19.18-.98h-5.75v14.84h-3.57v-14.84h-5.75v-3.36h15.07v3.36Zm16.25,14.84h-11.4v-18.2h11.4v3.34h-7.85v4.16h7.11v3.16h-7.11v4.21h7.85v3.34Zm21.28,0h-3.72l-8.27-12.91v12.91h-3.54v-18.2h4.42l7.57,12.04v-12.04h3.54v18.2Zm17.18-9.11c0,4.11,2.88,6.06,5.67,6.06s5.7-1.95,5.7-6.06-2.88-6.06-5.7-6.06-5.67,1.95-5.67,6.06Zm-3.67.03c0-5.88,4.42-9.5,9.34-9.5s9.37,3.62,9.37,9.5-4.42,9.47-9.37,9.47-9.34-3.62-9.34-9.47Zm39.74,9.09h-3.72l-8.27-12.91v12.91h-3.54v-18.2h4.42l7.57,12.04v-12.04h3.54v18.2Z"/>
    </g>
  </g>
</svg>