<?xml version="1.0" encoding="UTF-8"?>
<svg id="_图层_1" data-name="图层 1" xmlns="http://www.w3.org/2000/svg" viewBox="0 0 93.48 94">
  <defs>
    <style>
      .cls-1 {
        fill-rule: evenodd;
        stroke-width: 0px;
      }
    </style>
  </defs>
  <path id="Combined-Shape" class="cls-1" d="m74.39,41.67c2.07,1.24,4.76.55,5.99-1.54,1.23-2.09.55-4.78-1.53-6.02-17.35-10.35-44.79-11.33-61.3-6.29-2.31.71-3.61,3.16-2.91,5.48.7,2.32,3.14,3.63,5.45,2.93,14.38-4.39,39.24-3.56,54.3,5.44Zm-.49,13.33c1.05-1.72.51-3.98-1.2-5.04-14.43-8.92-35.53-11.42-52.51-6.24-1.92.59-3.01,2.63-2.43,4.57.58,1.93,2.62,3.03,4.55,2.44,14.86-4.54,34.01-2.29,46.58,5.48,1.71,1.06,3.96.52,5.01-1.21Zm-5.72,12.8c.84-1.38.41-3.19-.97-4.03-12.32-7.57-27.59-9.33-45.4-5.24-1.57.36-2.55,1.93-2.19,3.51.36,1.58,1.92,2.56,3.49,2.2,16.27-3.74,30.09-2.21,41.06,4.53,1.37.84,3.17.41,4.01-.97ZM46.74,0c25.81,0,46.74,21.04,46.74,47s-20.93,47-46.74,47S0,72.96,0,47,20.93,0,46.74,0Z"/>
</svg>