<?xml version="1.0" encoding="UTF-8"?>
<svg id="_图层_1" data-name="图层 1" xmlns="http://www.w3.org/2000/svg" viewBox="0 0 111.86 90">
  <defs>
    <style>
      .cls-1 {
        fill: #979797;
        stroke-width: 0px;
      }
    </style>
  </defs>
  <path class="cls-1" d="m110.54,2.62C108.87.44,106.28-.02,104.28,0c-2.09.02-4.49.54-7,1.35-4.98,1.6-11.28,4.61-18.32,8.64-6.51-4.1-14.21-6.47-22.46-6.47C33.12,3.53,14.17,22.54,14.17,46c0,4.67.75,9.16,2.14,13.36-4.63,4.93-8.79,9.8-11.7,13.96-1.66,2.37-3.04,4.68-3.84,6.75-.4,1.03-.72,2.19-.77,3.37-.05,1.2.19,2.67,1.18,3.95,1.4,1.82,3.46,2.43,5.19,2.58,1.74.15,3.67-.13,5.62-.61,3.92-.97,8.81-3,14.27-5.8,10.98-5.63,24.95-14.71,39.36-25.88,14.41-11.17,26.7-22.44,34.9-31.68,4.08-4.59,7.28-8.83,9.2-12.39.96-1.77,1.7-3.57,2-5.3.3-1.72.22-3.87-1.18-5.69m-7.35,7.44c-1.52,2.82-4.29,6.56-8.22,10.98-7.82,8.8-19.73,19.76-33.89,30.74-14.16,10.98-27.74,19.78-38.2,25.14-5.26,2.7-9.56,4.44-12.66,5.2-1.03.25-1.83.38-2.43.42.5-1.21,1.45-2.87,2.9-4.93,2.21-3.15,5.3-6.88,8.9-10.82.86,1.53,1.81,3,2.84,4.4,9.83-5.26,22.32-13.45,35.42-23.59,13.02-10.1,24.03-20.1,31.58-28.29-1.25-1.55-2.6-3-4.05-4.36,5.66-3.1,10.49-5.3,14.18-6.49,2.18-.7,3.75-.98,4.77-.99-.17.61-.51,1.47-1.12,2.61"/>
  <path class="cls-1" d="m68.64,61.63c-11.26,8.73-22.31,16.24-31.98,21.89,5.92,3.16,12.67,4.95,19.84,4.95,23.37,0,42.32-19.01,42.32-42.47,0-3.36-.39-6.62-1.12-9.76-7.87,7.93-17.86,16.71-29.06,25.39"/>
</svg>