<?xml version="1.0" encoding="UTF-8"?>
<svg id="_图层_1" data-name="图层 1" xmlns="http://www.w3.org/2000/svg" xmlns:xlink="http://www.w3.org/1999/xlink" viewBox="0 0 349.04 120">
  <defs>
    <style>
      .cls-1 {
        clip-path: url(#clippath);
      }

      .cls-2 {
        fill: none;
      }

      .cls-2, .cls-3, .cls-4, .cls-5 {
        stroke-width: 0px;
      }

      .cls-3 {
        fill-rule: evenodd;
      }

      .cls-3, .cls-5 {
        fill: #fff;
      }
    </style>
    <clipPath id="clippath">
      <path class="cls-2" d="m20.91,119.98c-.84,0-1.66-.01-2.5-.03-1.54-.05-3.37-.15-5.16-.51-1.68-.35-3.18-.91-4.58-1.72-1.44-.83-2.73-1.9-3.86-3.19-1.14-1.27-2.08-2.74-2.82-4.38-.72-1.58-1.21-3.28-1.5-5.2-.34-2.11-.42-4.25-.46-5.88-.02-.66-.04-2.86-.04-2.86V23.74s.02-2.17.04-2.81c.04-1.64.12-3.78.46-5.87.29-1.92.78-3.62,1.5-5.21.73-1.64,1.67-3.12,2.8-4.39,1.14-1.3,2.44-2.37,3.87-3.21,1.42-.82,2.91-1.38,4.56-1.71,1.86-.38,3.74-.48,5.18-.52l2.49-.04h307.21l2.52.04c1.42.04,3.3.13,5.13.51,1.67.33,3.17.89,4.61,1.72,1.42.82,2.71,1.9,3.84,3.19,1.13,1.27,2.08,2.75,2.82,4.4.71,1.6,1.2,3.3,1.48,5.17.32,1.98.42,4.01.48,5.92,0,.89,0,1.84,0,2.79.02,1.18.02,2.3.02,3.43v65.65c0,1.14,0,2.25-.02,3.37,0,1.02,0,1.95-.01,2.92-.06,1.85-.16,3.88-.47,5.82-.29,1.92-.77,3.62-1.49,5.24-.75,1.63-1.69,3.1-2.81,4.35-1.14,1.31-2.44,2.38-3.86,3.21-1.43.83-2.89,1.37-4.61,1.73-1.77.36-3.6.46-5.16.51-.81.02-1.66.03-2.48.03h-2.99s-304.23,0-304.23,0Z"/>
    </clipPath>
  </defs>
  <path class="cls-4" d="m20.91,119.98c-.84,0-1.66-.01-2.5-.03-1.54-.05-3.37-.15-5.16-.51-1.68-.35-3.18-.91-4.58-1.72-1.44-.83-2.73-1.9-3.86-3.19-1.14-1.27-2.08-2.74-2.82-4.38-.72-1.58-1.21-3.28-1.5-5.2-.34-2.11-.42-4.25-.46-5.88-.02-.66-.04-2.86-.04-2.86V23.74s.02-2.17.04-2.81c.04-1.64.12-3.78.46-5.87.29-1.92.78-3.62,1.5-5.21.73-1.64,1.67-3.12,2.8-4.39,1.14-1.3,2.44-2.37,3.87-3.21,1.42-.82,2.91-1.38,4.56-1.71,1.86-.38,3.74-.48,5.18-.52l2.49-.04h307.21l2.52.04c1.42.04,3.3.13,5.13.51,1.67.33,3.17.89,4.61,1.72,1.42.82,2.71,1.9,3.84,3.19,1.13,1.27,2.08,2.75,2.82,4.4.71,1.6,1.2,3.3,1.48,5.17.32,1.98.42,4.01.48,5.92,0,.89,0,1.84,0,2.79.02,1.18.02,2.3.02,3.43v65.65c0,1.14,0,2.25-.02,3.37,0,1.02,0,1.95-.01,2.92-.06,1.85-.16,3.88-.47,5.82-.29,1.92-.77,3.62-1.49,5.24-.75,1.63-1.69,3.1-2.81,4.35-1.14,1.31-2.44,2.38-3.86,3.21-1.43.83-2.89,1.37-4.61,1.73-1.77.36-3.6.46-5.16.51-.81.02-1.66.03-2.48.03h-2.99s-304.23,0-304.23,0Z"/>
  <g>
    <path class="cls-5" d="m25.17,19.01h2.92v16.27h8.8v2.52h-11.72v-18.79Z"/>
    <path class="cls-5" d="m40.32,19.38c0-.98.79-1.77,1.77-1.77s1.77.79,1.77,1.77-.81,1.76-1.77,1.76-1.77-.8-1.77-1.76Zm.35,4.28h2.81v14.14h-2.81v-14.14Z"/>
    <path class="cls-5" d="m47.28,34.1v-.02h2.83v.02c.36,1.07,1.39,1.78,3.07,1.78s2.95-.79,2.95-1.95v-.03c0-.88-.66-1.49-2.31-1.86l-2.25-.52c-2.67-.61-3.91-1.82-3.91-3.89h0c0-2.47,2.29-4.24,5.49-4.24s5.3,1.62,5.55,3.92h0s-2.69.01-2.69.01v-.03c-.27-.99-1.27-1.73-2.86-1.73s-2.67.77-2.67,1.9v.03c0,.88.65,1.43,2.24,1.81l2.24.51c2.72.64,4.02,1.8,4.02,3.84v.03c0,2.62-2.5,4.4-5.86,4.4-3.41,0-5.57-1.6-5.85-3.96Z"/>
    <path class="cls-5" d="m63.57,34.08v-8.19h-2.21v-2.23h2.21v-3.57h2.88v3.57h3.03v2.23h-3.03v7.51c0,1.52.57,2.15,1.96,2.15.43,0,.68-.01,1.07-.05v2.26c-.46.08-.98.14-1.52.14-3.11,0-4.39-1.1-4.39-3.82Z"/>
    <path class="cls-5" d="m72.3,30.77v-.02c0-4.41,2.55-7.37,6.5-7.37s6.36,2.85,6.36,7.1v.99h-10.02c.05,2.71,1.54,4.28,3.87,4.28,1.81,0,2.89-.9,3.23-1.63l.05-.1h2.72s-.03.1-.03.1c-.47,1.86-2.42,3.95-6.04,3.95-4.14,0-6.64-2.82-6.64-7.3Zm2.88-1.32h7.19c-.22-2.53-1.64-3.75-3.55-3.75s-3.38,1.32-3.63,3.75Z"/>
    <path class="cls-5" d="m88.89,23.66h2.83v2.15h.21c.69-1.51,2.04-2.42,4.1-2.42,3.16,0,4.91,1.89,4.91,5.26v9.15h-2.81v-8.49c0-2.34-.98-3.5-3.05-3.5s-3.36,1.42-3.36,3.7v8.3h-2.83v-14.15Z"/>
    <path class="cls-5" d="m112.2,30.74v-.03c0-4.55,2.55-7.33,6.69-7.33s6.68,2.77,6.68,7.33v.03c0,4.56-2.54,7.33-6.68,7.33s-6.69-2.77-6.69-7.33Zm10.49,0v-.03c0-3.14-1.38-4.98-3.8-4.98s-3.8,1.84-3.8,4.98v.03c0,3.14,1.37,4.98,3.8,4.98s3.8-1.85,3.8-4.98Z"/>
    <path class="cls-5" d="m129.3,23.66h2.82v2.15h.21c.69-1.51,2.05-2.42,4.1-2.42,3.17,0,4.91,1.89,4.91,5.26v9.15h-2.81v-8.49c0-2.34-.98-3.5-3.05-3.5s-3.36,1.42-3.36,3.7v8.3h-2.82v-14.15Z"/>
  </g>
  <path class="cls-3" d="m124.46,54.68c-.47-.23-.99-.34-1.5-.34h-15.55l.5-4.2-7.95-.04-.61,4.24h-16.01c-1.62,0-2.99,1.21-3.2,2.82l-1.01,8.26h6.39l.64-4.45s.04-.06.07-.06h32.98s.07.04.07.09l-.43,4.2,6.5.02.83-7.2c.18-1.33-.47-2.67-1.74-3.32m53.06,0c-.47-.23-.99-.34-1.5-.34h-15.9l.5-4.2-7.96-.04-.45,4.24h-16.5c-1.62,0-2.99,1.21-3.2,2.82l-1.01,8.26h6.39l.65-4.57s.04-.06.07-.06h33.67s.07.04.07.09l-.44,4.31,6.5.02.83-7.2c.18-1.33-.47-2.67-1.74-3.32m-62.34,16.76l-9.08.05c-.12,1.01-.25,2.2-.38,3.47h0s-.08.77-.08.77h18.41l-.68,6.58h-18.45c-.19,1.8-.39,3.34-.53,4.41h0c-.05.39-.09.72-.12.98-.83,7.14-2.65,7.78-6.22,7.91-.89.03-8.09,0-8.09,0l.86-6.37c.66,0,3.22-.02,4.06-.03.25,0,.49-.06.7-.19.04-.03.09-.06.12-.1.31-.31.44-1.15.44-1.15,0,0,.3-2.31.65-5.45h-19.88l.68-6.58h19.93c.11-.99.22-1.96.32-2.86.05-.46.1-.91.15-1.33l-9.94.06.68-6.62h27.13l-.68,6.45Zm55.98-3.29h-12.66l.53-5.01-7.51.05-.55,4.94h-13.04c-1.67,0-3.06,1.29-3.21,2.97l-2.03,19.69c-.09.92.22,1.81.83,2.49.61.67,1.47,1.07,2.38,1.07h32.89c1.64,0,3.03-1.26,3.21-2.91l2.38-19.69c.1-.92-.19-1.84-.81-2.53-.61-.69-1.48-1.09-2.4-1.09m-22.37,19.68h-9.37l.42-3.77h9.38l-.42,3.77Zm1.03-9.27h-9.38l.43-3.9h9.38l-.43,3.9Zm16.08,9.27h-9.49l.4-3.77h9.57l-.48,3.77Zm1.18-9.27h-9.68l.42-3.9h9.77l-.5,3.9Zm-127.66,9.99c1.91,0,3.16-.12,3.51-2.78.21-1.58,4.03-33.86,4.03-33.88h7.56l-3.18,29.95c-.86,8.46-2.08,12.45-9.07,13.5-1.81.27-8.34.22-8.34.22l.51-6.91s3.51-.1,4.98-.1m28.1-26.46l-6.63,1.92s1.48,7.87,2.21,11.09c.79,3.52,2.49,11.39,2.49,11.39,0,0,4.72-1.33,7.28-2.03l-.06-.22c-.68-2.59-1.22-4.67-2.62-10.62-.43-1.88-2.67-11.52-2.67-11.52m-42.28,10.91c1-2.38,4.36-10.8,4.36-10.8l6.74,1.95s-3.31,8.69-4.37,11.14c-2.06,4.76-4.87,11.2-4.87,11.2l-6.62-2.72s3.53-7.85,4.75-10.77"/>
  <g class="cls-1">
    <g>
      <path class="cls-5" d="m388.67-45.76c-2.7-3.51-6.88-4.25-10.11-4.23-3.38.03-7.25.87-11.31,2.18-8.05,2.59-18.22,7.45-29.58,13.96-10.51-6.62-22.95-10.44-36.27-10.44-37.74,0-68.34,30.71-68.34,68.58,0,7.54,1.21,14.79,3.45,21.58-7.47,7.96-14.19,15.82-18.9,22.54-2.68,3.82-4.91,7.55-6.19,10.9-.64,1.67-1.16,3.53-1.24,5.44-.08,1.94.3,4.31,1.9,6.38,2.26,2.94,5.58,3.93,8.37,4.17,2.81.24,5.92-.2,9.07-.98,6.33-1.56,14.23-4.85,23.05-9.37,17.73-9.09,40.28-23.75,63.56-41.79,23.28-18.04,43.11-36.24,56.36-51.15,6.59-7.42,11.76-14.25,14.86-20.01,1.54-2.86,2.75-5.77,3.24-8.56.48-2.77.36-6.25-1.9-9.18m-11.88,12.01c-2.46,4.56-6.93,10.59-13.27,17.73-12.62,14.21-31.86,31.91-54.73,49.64-22.87,17.73-44.8,31.94-61.69,40.6-8.49,4.35-15.43,7.16-20.45,8.4-1.66.41-2.96.61-3.93.67.8-1.95,2.34-4.63,4.68-7.97,3.57-5.09,8.57-11.11,14.37-17.48,1.38,2.47,2.92,4.84,4.58,7.11,15.87-8.49,36.05-21.71,57.19-38.1,21.03-16.3,38.8-32.47,50.99-45.69-2.02-2.5-4.2-4.85-6.54-7.03,9.14-5.01,16.93-8.56,22.9-10.49,3.52-1.13,6.06-1.59,7.7-1.6-.27.99-.82,2.38-1.81,4.21"/>
      <path class="cls-5" d="m321,49.53c-18.18,14.09-36.03,26.23-51.65,35.35,9.56,5.1,20.46,7.99,32.04,7.99,37.75,0,68.34-30.7,68.34-68.58,0-5.42-.63-10.7-1.81-15.76-12.71,12.8-28.84,26.99-46.92,41"/>
    </g>
  </g>
</svg>