<?xml version="1.0" encoding="utf-8"?>
<!-- Generator: Adobe Illustrator 28.0.0, SVG Export Plug-In . SVG Version: 6.00 Build 0)  -->
<svg version="1.1" id="图层_1" xmlns="http://www.w3.org/2000/svg" xmlns:xlink="http://www.w3.org/1999/xlink" x="0px" y="0px"
	 viewBox="0 0 349.04 120" style="enable-background:new 0 0 349.04 120;" xml:space="preserve">
<style type="text/css">
	.st0{display:none;}
	.st1{display:inline;fill:none;stroke:#FAE67B;stroke-width:11;stroke-linejoin:round;stroke-miterlimit:10;}
	.st2{fill:#FFFFFF;}
	.st3{fill-rule:evenodd;clip-rule:evenodd;fill:#FFFFFF;}
	.st4{clip-path:url(#SVGID_00000081634127654710319220000015459563291061893023_);}
	
		.st5{clip-path:url(#SVGID_00000009559261428001136120000014315444998890995081_);fill:url(#SVGID_00000051385762909084693100000005443882152534489234_);}
</style>
<g class="st0">
	<polyline class="st1" points="1072.32,-2122.66 1080.82,-2167.16 1085.32,-2122.66 	"/>
	<line class="st1" x1="1080.82" y1="-2167.16" x2="1123.47" y2="-2168.73"/>
</g>
<g>
	<path d="M20.91,119.98c-0.84,0-1.66-0.01-2.5-0.03c-1.54-0.05-3.37-0.15-5.16-0.51c-1.68-0.35-3.18-0.91-4.58-1.72
		c-1.44-0.83-2.73-1.9-3.86-3.19c-1.14-1.27-2.08-2.74-2.82-4.38c-0.72-1.58-1.21-3.28-1.5-5.2c-0.34-2.11-0.42-4.25-0.46-5.88
		C0.02,98.41,0,96.21,0,96.21V23.74c0,0,0.02-2.17,0.04-2.81c0.04-1.64,0.12-3.78,0.46-5.87c0.29-1.92,0.78-3.62,1.5-5.21
		c0.73-1.64,1.67-3.12,2.8-4.39c1.14-1.3,2.44-2.37,3.87-3.21c1.42-0.82,2.91-1.38,4.56-1.71c1.86-0.38,3.74-0.48,5.18-0.52L20.91,0
		h307.21l2.52,0.04c1.42,0.04,3.3,0.13,5.13,0.51c1.67,0.33,3.17,0.89,4.61,1.72c1.42,0.82,2.71,1.9,3.84,3.19
		c1.13,1.27,2.08,2.75,2.82,4.4c0.71,1.6,1.2,3.3,1.48,5.17c0.32,1.98,0.42,4.01,0.48,5.92c0.01,0.89,0.01,1.84,0.01,2.79
		c0.02,1.18,0.02,2.3,0.02,3.43v65.65c0,1.14,0,2.25-0.02,3.37c0,1.02,0,1.95-0.01,2.92c-0.06,1.85-0.16,3.88-0.47,5.82
		c-0.29,1.92-0.77,3.62-1.49,5.24c-0.75,1.63-1.69,3.1-2.81,4.35c-1.14,1.31-2.44,2.38-3.86,3.21c-1.43,0.83-2.89,1.37-4.61,1.73
		c-1.77,0.36-3.6,0.46-5.16,0.51c-0.81,0.02-1.66,0.03-2.48,0.03l-2.99,0.01L20.91,119.98z"/>
	<g>
		<path class="st2" d="M25.17,19.01h2.92v16.27h8.8v2.52H25.17V19.01z"/>
		<path class="st2" d="M40.32,19.38c0-0.98,0.79-1.77,1.77-1.77c0.97,0,1.77,0.79,1.77,1.77c0,0.96-0.81,1.76-1.77,1.76
			C41.11,21.14,40.32,20.34,40.32,19.38z M40.67,23.66h2.81V37.8h-2.81V23.66z"/>
		<path class="st2" d="M47.28,34.1v-0.02h2.83l0.01,0.02c0.35,1.07,1.38,1.78,3.06,1.78c1.74,0,2.95-0.79,2.95-1.95V33.9
			c0-0.88-0.66-1.49-2.31-1.86l-2.25-0.52c-2.67-0.61-3.91-1.82-3.91-3.89v-0.01c0-2.46,2.29-4.23,5.49-4.23
			c3.23,0,5.3,1.62,5.55,3.92v0.01h-2.69v-0.03c-0.27-0.99-1.27-1.73-2.86-1.73c-1.55,0-2.67,0.77-2.67,1.9v0.03
			c0,0.88,0.65,1.43,2.24,1.81l2.24,0.51c2.72,0.64,4.02,1.8,4.02,3.84v0.03c0,2.62-2.5,4.4-5.86,4.4
			C49.71,38.07,47.55,36.47,47.28,34.1z"/>
		<path class="st2" d="M63.57,34.08v-8.19h-2.21v-2.23h2.21V20.1h2.88v3.57h3.03v2.23h-3.03v7.51c0,1.52,0.57,2.15,1.96,2.15
			c0.43,0,0.68-0.01,1.07-0.05v2.26c-0.46,0.08-0.98,0.14-1.52,0.14C64.85,37.89,63.57,36.8,63.57,34.08z"/>
		<path class="st2" d="M72.3,30.77v-0.02c0-4.41,2.55-7.37,6.5-7.37c3.94,0,6.36,2.85,6.36,7.1v0.99H75.14
			c0.05,2.71,1.54,4.28,3.87,4.28c1.81,0,2.89-0.9,3.23-1.63l0.05-0.1l2.72-0.01l-0.03,0.12c-0.47,1.86-2.42,3.95-6.04,3.95
			C74.8,38.07,72.3,35.25,72.3,30.77z M75.18,29.45h7.19c-0.22-2.53-1.64-3.75-3.55-3.75C76.88,25.7,75.42,27.02,75.18,29.45z"/>
		<path class="st2" d="M88.89,23.66h2.83v2.15h0.21c0.69-1.51,2.04-2.42,4.1-2.42c3.16,0,4.91,1.89,4.91,5.26v9.15h-2.81v-8.49
			c0-2.34-0.98-3.5-3.05-3.5c-2.07,0-3.36,1.42-3.36,3.7v8.3h-2.83V23.66z"/>
		<path class="st2" d="M112.2,30.74v-0.03c0-4.55,2.55-7.33,6.69-7.33c4.13,0,6.68,2.77,6.68,7.33v0.03c0,4.56-2.54,7.33-6.68,7.33
			C114.74,38.07,112.2,35.3,112.2,30.74z M122.69,30.74v-0.03c0-3.14-1.38-4.98-3.8-4.98c-2.43,0-3.8,1.84-3.8,4.98v0.03
			c0,3.14,1.37,4.98,3.8,4.98C121.31,35.72,122.69,33.87,122.69,30.74z"/>
		<path class="st2" d="M129.3,23.66h2.82v2.15h0.21c0.69-1.51,2.05-2.42,4.1-2.42c3.17,0,4.91,1.89,4.91,5.26v9.15h-2.81v-8.49
			c0-2.34-0.98-3.5-3.05-3.5s-3.36,1.42-3.36,3.7v8.3h-2.82V23.66z"/>
	</g>
	<path class="st3" d="M124.46,54.68c-0.47-0.23-0.99-0.34-1.5-0.34H107.4l0.5-4.2l-7.95-0.04l-0.61,4.24H83.33
		c-1.62,0-2.99,1.21-3.2,2.82l-1.01,8.26h6.39l0.64-4.45c0.01-0.03,0.04-0.06,0.07-0.06h32.98c0.04,0,0.07,0.04,0.07,0.09l-0.43,4.2
		l6.5,0.02l0.83-7.2C126.38,56.67,125.73,55.33,124.46,54.68 M177.51,54.68c-0.47-0.23-0.99-0.34-1.5-0.34h-15.9l0.5-4.2l-7.96-0.04
		l-0.45,4.24h-16.5c-1.62,0-2.99,1.21-3.2,2.82l-1.01,8.26h6.39l0.65-4.57c0.01-0.03,0.04-0.06,0.07-0.06h33.67
		c0.04,0,0.07,0.04,0.07,0.09l-0.44,4.31l6.5,0.02l0.83-7.2C179.43,56.67,178.78,55.33,177.51,54.68 M115.17,71.44l-9.08,0.05
		c-0.12,1.01-0.25,2.2-0.38,3.47v0v0v0l-0.08,0.76h18.41l-0.68,6.58H104.9c-0.19,1.8-0.39,3.34-0.53,4.41v0v0v0v0
		c-0.05,0.39-0.09,0.72-0.12,0.98c-0.83,7.14-2.65,7.78-6.22,7.91c-0.89,0.03-8.09,0-8.09,0l0.86-6.37c0.66,0,3.22-0.02,4.06-0.03
		c0.25,0,0.49-0.06,0.7-0.19c0.04-0.03,0.09-0.06,0.12-0.1c0.31-0.31,0.44-1.15,0.44-1.15s0.3-2.31,0.65-5.45H76.89l0.68-6.58H97.5
		c0.11-0.99,0.22-1.96,0.32-2.86c0.05-0.46,0.1-0.91,0.15-1.33l-9.94,0.06l0.68-6.62h27.13L115.17,71.44z M171.15,68.14H158.5
		l0.53-5.01l-7.51,0.05l-0.55,4.94h-13.04c-1.67,0-3.06,1.29-3.21,2.97l-2.03,19.69c-0.09,0.92,0.22,1.81,0.83,2.49
		c0.61,0.67,1.47,1.07,2.38,1.07h32.89c1.64,0,3.03-1.26,3.21-2.91l2.38-19.69c0.1-0.92-0.19-1.84-0.81-2.53
		C172.94,68.54,172.07,68.14,171.15,68.14 M148.78,87.82h-9.37l0.42-3.77h9.38L148.78,87.82z M149.81,78.55h-9.38l0.43-3.9h9.38
		L149.81,78.55z M165.89,87.82h-9.49l0.4-3.77h9.57L165.89,87.82z M167.07,78.55h-9.68l0.42-3.9h9.77L167.07,78.55z M39.41,88.54
		c1.91,0,3.16-0.12,3.51-2.78c0.21-1.58,4.03-33.86,4.03-33.88h7.56l-3.18,29.95c-0.86,8.46-2.08,12.45-9.07,13.5
		c-1.81,0.27-8.34,0.22-8.34,0.22l0.51-6.91C34.43,88.64,37.94,88.54,39.41,88.54 M67.51,62.08L60.89,64c0,0,1.48,7.87,2.21,11.09
		c0.79,3.52,2.49,11.39,2.49,11.39s4.72-1.33,7.28-2.03l-0.06-0.22c-0.68-2.59-1.22-4.67-2.62-10.62
		C69.76,71.72,67.51,62.08,67.51,62.08 M25.23,72.99c1-2.38,4.36-10.8,4.36-10.8l6.74,1.95c0,0-3.31,8.69-4.37,11.14
		c-2.06,4.76-4.87,11.2-4.87,11.2l-6.62-2.72C20.48,83.76,24,75.91,25.23,72.99"/>
	<g>
		<defs>
			<path id="SVGID_1_" d="M20.91,119.98c-0.84,0-1.66-0.01-2.5-0.03c-1.54-0.05-3.37-0.15-5.16-0.51c-1.68-0.35-3.18-0.91-4.58-1.72
				c-1.44-0.83-2.73-1.9-3.86-3.19c-1.14-1.27-2.08-2.74-2.82-4.38c-0.72-1.58-1.21-3.28-1.5-5.2c-0.34-2.11-0.42-4.25-0.46-5.88
				C0.02,98.41,0,96.21,0,96.21V23.74c0,0,0.02-2.17,0.04-2.81c0.04-1.64,0.12-3.78,0.46-5.87c0.29-1.92,0.78-3.62,1.5-5.21
				c0.73-1.64,1.67-3.12,2.8-4.39c1.14-1.3,2.44-2.37,3.87-3.21c1.42-0.82,2.91-1.38,4.56-1.71c1.86-0.38,3.74-0.48,5.18-0.52
				L20.91,0h307.21l2.52,0.04c1.42,0.04,3.3,0.13,5.13,0.51c1.67,0.33,3.17,0.89,4.61,1.72c1.42,0.82,2.71,1.9,3.84,3.19
				c1.13,1.27,2.08,2.75,2.82,4.4c0.71,1.6,1.2,3.3,1.48,5.17c0.32,1.98,0.42,4.01,0.48,5.92c0.01,0.89,0.01,1.84,0.01,2.79
				c0.02,1.18,0.02,2.3,0.02,3.43v65.65c0,1.14,0,2.25-0.02,3.37c0,1.02,0,1.95-0.01,2.92c-0.06,1.85-0.16,3.88-0.47,5.82
				c-0.29,1.92-0.77,3.62-1.49,5.24c-0.75,1.63-1.69,3.1-2.81,4.35c-1.14,1.31-2.44,2.38-3.86,3.21c-1.43,0.83-2.89,1.37-4.61,1.73
				c-1.77,0.36-3.6,0.46-5.16,0.51c-0.81,0.02-1.66,0.03-2.48,0.03l-2.99,0.01L20.91,119.98z"/>
		</defs>
		<clipPath id="SVGID_00000088820193879407552860000014714744818361933230_">
			<use xlink:href="#SVGID_1_"  style="overflow:visible;"/>
		</clipPath>
		<g style="clip-path:url(#SVGID_00000088820193879407552860000014714744818361933230_);">
			<g>
				<defs>
					<path id="SVGID_00000176727177784026668990000012053254729617154955_" d="M235.13,23.16c0,37.93,30.98,68.68,69.19,68.68
						c38.21,0,69.19-30.75,69.19-68.68s-30.98-68.68-69.19-68.68C266.11-45.52,235.13-14.77,235.13,23.16"/>
				</defs>
				<clipPath id="SVGID_00000180343679961227205320000006579548308834631335_">
					<use xlink:href="#SVGID_00000176727177784026668990000012053254729617154955_"  style="overflow:visible;"/>
				</clipPath>
				
					<linearGradient id="SVGID_00000008859238534879648950000017670104138796194444_" gradientUnits="userSpaceOnUse" x1="821.9113" y1="-2618.7629" x2="822.7616" y2="-2618.7629" gradientTransform="matrix(0 372.3818 -372.3818 0 -974875.375 -306209.2188)">
					<stop  offset="0" style="stop-color:#25B3E0"/>
					<stop  offset="0.3698" style="stop-color:#25B3E0"/>
					<stop  offset="1" style="stop-color:#E4D4BD"/>
				</linearGradient>
				
					<rect x="235.13" y="-45.52" style="clip-path:url(#SVGID_00000180343679961227205320000006579548308834631335_);fill:url(#SVGID_00000008859238534879648950000017670104138796194444_);" width="138.38" height="137.36"/>
			</g>
			<path class="st2" d="M243.09,55.14c-1.49-2.81-2.8-5.72-3.89-8.74c-8.74,9.11-15.25,17.07-19.34,23.66
				c-1.96,3.16-7.92,12.77-3.16,18.94l6.99-5.4c0.04,0.06,0.07,0.1,0.07,0.12C223.23,82.14,225.82,73.65,243.09,55.14"/>
			<path class="st2" d="M392.29-46.63L392.29-46.63c-4.86-6.31-16.12-2.69-19.82-1.51c-7.83,2.51-18.16,7.38-29.86,14.08
				c2.68,1.77,5.23,3.73,7.63,5.84c23.44-13.02,33.12-13.85,35.01-13.01c0.08,0.95-0.19,7.43-17.36,26.28
				c-13.39,14.7-32.53,31.89-53.9,48.4c-21.37,16.51-42.84,30.68-60.45,39.92c-24.53,12.87-29.89,10.13-29.94,10.1
				c0.01,0.01,0.05,0.04,0.1,0.1l-6.99,5.4c1.86,2.41,4.74,3.62,8.75,3.62c6.72,0,16.59-3.41,30.07-10.29
				c18.46-9.44,41.14-24.3,63.87-41.85s42.84-35.74,56.63-51.22C392.09-28.79,397.26-40.18,392.29-46.63"/>
		</g>
	</g>
</g>
</svg>
