<?xml version="1.0" encoding="utf-8"?>
<!-- Generator: Adobe Illustrator 28.0.0, SVG Export Plug-In . SVG Version: 6.00 Build 0)  -->
<svg version="1.1" id="图层_1" xmlns="http://www.w3.org/2000/svg" xmlns:xlink="http://www.w3.org/1999/xlink" x="0px" y="0px"
	 viewBox="0 0 272.26 272.26" style="enable-background:new 0 0 272.26 272.26;" xml:space="preserve">
<style type="text/css">
	.st0{fill:#FFE67B;}
</style>
<g>
	<rect x="528.6" y="2.22" class="st0" width="130.61" height="130.61"/>
	<text transform="matrix(1 0 0 1 538.2938 18.6888)" style="font-family:'Ubuntu-Regular'; font-size:12px;">#FFE67B</text>
	<text transform="matrix(1 0 0 1 538.2938 103.3437)"><tspan x="0" y="0" style="font-family:'Ubuntu-Regular'; font-size:7px;">R</tspan><tspan x="0" y="11" style="font-family:'Ubuntu-Regular'; font-size:7px;">G</tspan><tspan x="0" y="22" style="font-family:'Ubuntu-Regular'; font-size:7px;">B </tspan></text>
	<text transform="matrix(1 0 0 1 552.2874 103.3437)"><tspan x="0" y="0" style="font-family:'Ubuntu-Regular'; font-size:7px;">255</tspan><tspan x="0" y="11" style="font-family:'Ubuntu-Regular'; font-size:7px;">230 </tspan><tspan x="0" y="22" style="font-family:'Ubuntu-Regular'; font-size:7px;">123</tspan></text>
	<text transform="matrix(1 0 0 1 585.6184 93.8935)"><tspan x="0" y="0" style="font-family:'Ubuntu-Regular'; font-size:7px;">C</tspan><tspan x="0" y="11" style="font-family:'Ubuntu-Regular'; font-size:7px;">M</tspan><tspan x="0" y="22" style="font-family:'Ubuntu-Regular'; font-size:7px;">Y</tspan><tspan x="0" y="33" style="font-family:'Ubuntu-Regular'; font-size:7px;">K</tspan></text>
	<text transform="matrix(1 0 0 1 599.6121 93.8935)"><tspan x="0" y="0" style="font-family:'Ubuntu-Regular'; font-size:7px;">4</tspan><tspan x="0" y="11" style="font-family:'Ubuntu-Regular'; font-size:7px;">12</tspan><tspan x="0" y="22" style="font-family:'Ubuntu-Regular'; font-size:7px;">59</tspan><tspan x="0" y="33" style="font-family:'Ubuntu-Regular'; font-size:7px;">0</tspan></text>
</g>
<g>
	<path d="M77.89,116.17c0-72.28,38.5-107.81,38.5-107.81H95.54c-5.21,4.88-43.25,42.75-43.25,107.81s38.05,102.94,43.25,107.81
		h20.85C116.39,223.98,77.89,188.45,77.89,116.17z"/>
	<path d="M194.36,156.09c0-72.28-38.5-107.81-38.5-107.81h20.85c5.21,4.88,43.25,42.75,43.25,107.81s-38.05,102.94-43.25,107.81
		h-20.85C155.86,263.9,194.36,228.37,194.36,156.09z"/>
</g>
</svg>
